<?xml version="1.0" encoding="UTF-8"?>
<svg id="Layer_2" data-name="Layer 2" xmlns="http://www.w3.org/2000/svg" viewBox="0 0 468.88 226.54">
  <defs>
    <style>
      .cls-1, .cls-2 {
        fill: #09193c;
      }

      .cls-3 {
        fill: #c2c2c2;
      }

      .cls-3, .cls-4 {
        fill-rule: evenodd;
      }

      .cls-2 {
        font-family: ArialMT, Arial;
        font-size: 21.94px;
      }

      .cls-4 {
        fill: #ed1c24;
      }

      .cls-5 {
        fill: none;
      }

      .cls-6 {
        fill: #010101;
      }
    </style>
  </defs>
  <g id="Layer_1-2" data-name="Layer 1">
    <g>
      <rect class="cls-5" width="468.88" height="226.54"/>
      <g>
        <g id="Group_5835" data-name="Group 5835">
          <path id="Path_7" data-name="Path 7" class="cls-6" d="m133.99,79.11v-19.69h8.37c1.55-.07,3.1.11,4.59.53.95.35,1.76,1.02,2.29,1.89.58.93.88,2.01.86,3.1.05,1.34-.42,2.65-1.3,3.66-1.04,1.05-2.42,1.69-3.9,1.82.79.44,1.5,1,2.13,1.65.85,1,1.6,2.07,2.26,3.2l2.41,3.84h-4.75s-2.88-4.29-2.88-4.29c-.64-1.01-1.34-1.98-2.1-2.89-.33-.37-.74-.65-1.2-.82-.65-.18-1.33-.25-2-.22h-.8s0,8.23,0,8.23h-3.98Zm3.97-11.37h2.94c1.2.06,2.4-.01,3.57-.23.45-.15.85-.44,1.12-.83.28-.44.42-.96.4-1.48.03-.58-.16-1.15-.53-1.61-.39-.43-.92-.71-1.49-.79-.32-.05-1.29-.07-2.9-.07h-3.1s0,5.01,0,5.01Zm15.87,11.37v-19.69h14.6v3.33h-10.61s0,4.36,0,4.36h9.89v3.32h-9.89s0,5.37,0,5.37h11v3.31h-14.99Zm27.51-7.24v-3.32h8.57v7.85c-1.06.94-2.29,1.66-3.62,2.13-1.53.6-3.16.92-4.8.92-1.88.04-3.74-.4-5.39-1.3-1.51-.85-2.71-2.14-3.44-3.71-.78-1.64-1.17-3.43-1.16-5.24-.04-1.9.41-3.78,1.29-5.47.85-1.58,2.17-2.86,3.77-3.67,1.47-.7,3.09-1.04,4.72-.98,2.03-.12,4.04.42,5.73,1.54,1.38,1.04,2.33,2.55,2.65,4.25l-3.95.74c-.24-.92-.8-1.73-1.56-2.29-.84-.58-1.85-.88-2.87-.84-1.55-.07-3.07.53-4.14,1.65-1.12,1.38-1.67,3.13-1.54,4.9-.14,1.88.41,3.76,1.56,5.26,1.03,1.17,2.53,1.81,4.08,1.75.86,0,1.71-.17,2.5-.49.77-.29,1.5-.69,2.16-1.19v-2.5s-4.57,0-4.57,0Zm12.24,7.24v-19.69h14.6v3.33h-10.61s0,4.36,0,4.36h9.89v3.32h-9.89s0,5.37,0,5.37h11v3.31h-14.99Zm18.39,0v-19.69h3.89s8.06,13.15,8.06,13.15v-13.15h3.69v19.69h-4s-7.94-12.84-7.94-12.84v12.84h-3.71Zm32.43-7.24l3.86,1.22c-.42,1.88-1.46,3.57-2.95,4.79-1.52,1.09-3.36,1.64-5.23,1.56-2.43.08-4.78-.9-6.45-2.68-1.77-2.02-2.67-4.65-2.53-7.33-.17-2.78.74-5.52,2.54-7.64,1.73-1.83,4.16-2.82,6.68-2.72,2.16-.09,4.27.68,5.87,2.14.99,1,1.68,2.26,2.01,3.63l-3.94.93c-.19-.95-.71-1.81-1.46-2.42-.77-.6-1.72-.91-2.69-.89-1.36-.04-2.67.53-3.55,1.57-1.04,1.48-1.52,3.29-1.36,5.09-.17,1.87.3,3.75,1.34,5.32.86,1.04,2.15,1.63,3.5,1.58,1,.02,1.98-.34,2.73-1.01.86-.86,1.44-1.97,1.64-3.18v.02Zm12.44,7.24v-8.29s-7.21-11.4-7.21-11.4h4.67s4.64,7.79,4.64,7.79l4.54-7.8h4.58s-7.24,11.44-7.24,11.44v8.27h-3.98Z"/>
          <path id="Path_5" data-name="Path 5" class="cls-1" d="m153.27,87.13c3.8-.05,7.55.95,10.82,2.88,3.35,1.92,6.13,4.7,8.05,8.06,1.92,3.51,2.89,7.47,2.8,11.47.24,6.11-2.03,12.05-6.27,16.46-4.21,4.26-10.01,6.56-16,6.36-6.61.28-12.97-2.55-17.18-7.65-3.46-4.19-5.3-9.49-5.17-14.92-.06-4.05.94-8.04,2.92-11.58,1.95-3.42,4.82-6.23,8.28-8.1,3.6-1.99,7.65-3.02,11.76-2.98Zm-.01,3.38c-2.96-.08-5.89.7-8.42,2.24-2.46,1.63-4.42,3.91-5.64,6.6-1.51,3.38-2.23,7.06-2.11,10.76-.11,3.57.61,7.11,2.09,10.36,1.23,2.64,3.17,4.9,5.6,6.5,2.36,1.51,5.11,2.29,7.92,2.26,2.74.05,5.43-.72,7.73-2.21,2.47-1.75,4.4-4.16,5.56-6.96,1.5-3.31,2.25-6.91,2.2-10.55.04-3.71-.7-7.39-2.2-10.78-1.02-2.51-2.76-4.67-4.99-6.21-2.32-1.41-5.01-2.11-7.72-2.02h0Zm28.01-2.63h16.96v2.63h-1.57c-.87-.05-1.74.07-2.57.35-.47.2-.86.56-1.1,1.01-.28.76-.4,1.57-.35,2.38v30.5c-.05.84,0,1.68.16,2.51.13.38.43.68.81.81.83.18,1.69.24,2.54.19h2.35c2.39.05,4.77-.34,7.02-1.17,1.94-.75,3.69-1.92,5.14-3.42,1.75-1.98,3.16-4.24,4.17-6.69l2.8.93-4.89,13.7h-31.47v-2.63h1.38c.91.06,1.83-.05,2.7-.35.48-.25.85-.65,1.07-1.14.31-.88.43-1.81.38-2.74v-29.75c.07-1.03-.05-2.06-.35-3.05-.19-.48-.55-.87-1-1.1-.9-.29-1.85-.4-2.8-.33h-1.38v-2.64Zm38.11,0h16.74v2.63h-1.29c-.91-.07-1.81.11-2.63.5-.54.34-.96.84-1.19,1.43-.32,1.17-.45,2.39-.38,3.61v28.18c-.06,1.03.08,2.06.41,3.03.23.55.63,1,1.14,1.3.84.33,1.75.47,2.65.41h1.29v2.63h-16.73v-2.63h1.38c.89.06,1.79-.08,2.62-.42.5-.27.89-.7,1.11-1.22.29-1,.41-2.05.35-3.09v-28.83c.06-1.1-.05-2.2-.35-3.27-.21-.53-.6-.97-1.11-1.23-.83-.32-1.73-.45-2.62-.39h-1.38v-2.64Zm22.33,2.63v-2.63h15.61c5.02-.22,10.05.23,14.95,1.35,4.09,1.27,7.65,3.86,10.12,7.37,2.87,3.98,4.37,8.79,4.29,13.7.03,3.38-.69,6.73-2.11,9.8-1.26,2.83-3.17,5.32-5.56,7.29-2.01,1.6-4.36,2.71-6.86,3.27-2.65.63-5.36.96-8.09.96h-22.35v-2.63h1.82s.6.03.6.03c.66.03,1.32-.13,1.9-.47.48-.29.84-.73,1.05-1.25.2-.91.27-1.83.22-2.76v-29.25c.07-1.08-.04-2.17-.31-3.22-.26-.62-.77-1.11-1.4-1.36-1.28-.19-2.58-.25-3.87-.2Zm11.38,37.74h9.48c1.57-.06,3.14-.23,4.69-.5,1.61-.18,3.2-.59,4.69-1.22,1.56-.86,2.93-2.03,4.02-3.44,1.35-1.68,2.37-3.61,3-5.68.74-2.46,1.09-5.01,1.05-7.58.05-2.49-.3-4.97-1.05-7.34-.69-2.05-1.76-3.94-3.17-5.58-1.3-1.56-2.9-2.85-4.71-3.78-1.82-.89-3.78-1.45-5.79-1.65-1.15-.1-3.07-.16-5.77-.16h-6.43s0,36.93,0,36.93Zm56.22-40.38h5.14s13.59,36.57,13.59,36.57c.39,1.36,1.08,2.6,2.03,3.65.77.63,1.75.94,2.74.89h.7v2.63h-15.57v-2.64c.5-.04.99-.06,1.47-.06.67.06,1.35-.05,1.97-.31.55-.3.9-.88.91-1.51-.17-1.11-.46-2.19-.88-3.23l-2.89-8.46h-15.84s-3.41,9.47-3.41,9.47c-.27.65-.45,1.34-.53,2.04,0,.39.11.77.33,1.1.22.31.53.56.89.7.59.19,1.2.27,1.82.23.56,0,1.02.01,1.38.03v2.63h-13.07v-2.62c.89.05,1.78-.07,2.62-.36.56-.26,1.04-.66,1.4-1.17.65-1.06,1.18-2.19,1.57-3.37l13.64-36.21Zm-5.52,24.46h13.51s-6.73-18.81-6.73-18.81l-6.78,18.81Zm30.05-24.45h16.37v2.63h-1.87c-.74-.07-1.49.04-2.18.32-.34.24-.52.63-.49,1.04.06.61.26,1.19.6,1.71.1.17.24.41.41.73l8.53,15.8,9.43-16.39c.25-.42.48-.86.67-1.31.07-.2.11-.41.11-.62,0-.27-.07-.53-.23-.74-.19-.23-.45-.39-.74-.47-.58-.06-1.17-.08-1.76-.06h-1.63v-2.63h13.54v2.64c-.89-.05-1.78.03-2.65.23-.52.14-1,.41-1.4.78-.6.67-1.12,1.41-1.55,2.21l-11.86,19.74v11c-.08,1.06.05,2.13.39,3.13.27.49.71.86,1.24,1.05,1.29.29,2.62.41,3.95.33v2.63h-17.1v-2.64h1.32c.95.07,1.9-.06,2.8-.38.49-.28.88-.71,1.11-1.22.26-.95.35-1.93.28-2.92v-9.84s-11.57-20.56-11.57-20.56c-.51-1.17-1.3-2.2-2.3-2.99-1.09-.42-2.26-.6-3.43-.55v-2.63Zm73.42,0h2.26s3.35,13.48,3.35,13.48l-2.92.88c-1.65-3.55-4.17-6.62-7.32-8.93-2.41-1.79-5.33-2.74-8.33-2.73-1.7-.03-3.39.31-4.95.99-1.31.54-2.44,1.42-3.29,2.55-.69.92-1.07,2.04-1.09,3.19,0,1.01.3,2,.85,2.85.65,1,1.53,1.83,2.57,2.43,1.79.96,3.68,1.7,5.65,2.21l8.17,2.42c1.49.48,2.95,1.04,4.37,1.69,1.61.66,3.12,1.55,4.47,2.65,1.08.94,1.93,2.11,2.51,3.42.61,1.38.92,2.87.91,4.38-.05,3.57-1.73,6.92-4.56,9.1-3.32,2.7-7.52,4.09-11.8,3.91-2.27.04-4.53-.33-6.68-1.08-2.31-.93-4.46-2.23-6.36-3.84l-1.44,4.17h-2.2s-2.91-15.7-2.91-15.7l2.92-.6c.95,2.71,2.39,5.21,4.25,7.4,1.62,1.91,3.62,3.48,5.86,4.59,2.03,1.01,4.27,1.54,6.54,1.55,2.87.05,5.67-.92,7.9-2.73,1.74-1.25,2.79-3.25,2.82-5.39.05-1.78-.7-3.49-2.04-4.67-2.21-1.61-4.73-2.76-7.4-3.38l-7.84-2.26c-3.47-.77-6.68-2.46-9.28-4.89-1.74-1.85-2.71-4.29-2.7-6.83,0-1.99.61-3.94,1.76-5.56,1.39-1.88,3.25-3.36,5.39-4.28,2.49-1.16,5.21-1.75,7.96-1.72,2.38,0,4.73.42,6.96,1.25,1.57.59,3.03,1.44,4.33,2.51l1.33-3Z"/>
          <path id="Path_6" data-name="Path 6" class="cls-1" d="m54.44,65.07h25.29v3.97h-1.74c-1.46-.08-2.92.11-4.3.57-.86.37-1.52,1.1-1.81,1.99-.37,1.44-.51,2.92-.42,4.4v18.29s34,0,34,0v-17.82c.07-1.47-.01-2.94-.23-4.4-.21-.95-.79-1.77-1.62-2.27-1.17-.58-2.48-.84-3.79-.76h-2.58v-3.97h25.1v3.97h-2.26c-1.27-.09-2.55.12-3.73.59-.69.34-1.24.91-1.55,1.61-.39,1.43-.54,2.91-.45,4.38v44.67c-.11,1.59.05,3.19.47,4.72.38.73,1.07,1.26,1.88,1.43,1.87.28,3.76.37,5.64.28v3.93h-25.1v-3.95h1.83c1.56.09,3.12-.07,4.63-.47.7-.24,1.25-.79,1.48-1.49.27-1.65.37-3.33.28-5v-20.41s-34,0-34,0v20.92c-.11,1.6.06,3.21.49,4.75.39.73,1.09,1.25,1.9,1.4,1.94.27,3.91.37,5.87.3v3.94h-25.29v-3.95h1.6c1.54.1,3.09-.04,4.58-.4.66-.31,1.18-.86,1.46-1.53.44-1.28.63-2.64.54-4v-45.18c.08-1.44-.09-2.88-.49-4.26-.29-.75-.84-1.37-1.54-1.75-1.11-.45-2.31-.64-3.5-.56h-2.64v-3.97Z"/>
          <path id="Path_3" data-name="Path 3" class="cls-3" d="m109.06,152.95c.74-.59,1.51-1.14,2.3-1.65-.34.28-2.23,1.91-2.27,1.91-.43.41-.8.7-1.46,1.27-1.2,1.01-1.89,1.63-2.85,2.42-.85.81-2.66,2.5-2.74,2.53-1.36,1.27-3.95,4.02-3.95,4.06-1.01,1.03-1.76,1.89-2.63,2.85-.47.57-2.12,2.78-2.85,3.95-1.15,1.8-2.93,5.12-1.43,7.57,0,.04.38.67.38.7.24.32.56.57.93.72h.11c.46.41,1.03.68,1.63.77.99.36,2.03.55,3.07.55,1.11.17,2.24.2,3.37.09.75-.02,1.49-.09,2.23-.21,5.57-.61,11.08-1.67,16.48-3.17.41-.07,2.53-.64,3.18-.87.53-.08,2.54-.72,3.07-.88.45-.13,8.19-2.6,10.86-3.5.49-.18,4.28-1.31,6.23-2.15,1.02-.35,4.75-1.77,5.3-2.03.47-.14,3.5-1.36,4.61-1.76.88-.37,9.17-3.73,11.3-4.61,2.61-1.07,11.58-4.88,12.18-5.16,1.62-.72,4.59-2.08,6.58-2.96,2.42-1.06,5.03-2.28,7.68-3.52,2.4-1.07,8.87-4.07,9.34-4.38,1.17-.55,4.29-2.05,6.37-3.07.35-.08,9.61-4.58,13.39-6.69,1.59-.86,4.45-2.31,6.04-3.18,14.01-7.11,27.49-14.72,40.94-22.39,3.27-1.92,6.6-3.78,9.77-5.82.5-.12,6.9-4.17,8.55-5.16.45-.29,11.19-7.14,12.07-7.68.5-.3,8.4-5.62,8.78-5.81.53-.42,13.63-9.49,14.05-9.99.04,0,8.02-6.1,8.45-6.36,1.33-.99,2.62-2.06,3.84-3.18h.11c.4-.36,2.2-1.93,2.74-2.3,1.73-1.56,8.21-7.43,9.83-9.2,1.35-1.4,2.6-2.91,3.73-4.49.81-1.2,1.47-2.16,1.69-2.55.63-1.12,1.14-2.3,1.54-3.52.21-1.09.17-2.21-.11-3.29-.46-1-1.28-1.79-2.3-2.2-1.04-.47-2.15-.77-3.29-.88-.15-.25-.77-.04-1.09-.11l-2.55-.04c-.44.07-2.35-.1-2.61.15-1.92.1-3.83.36-5.71.77-.47-.02-7.7,1.8-10.21,2.08.28,0,9.68-2.8,13.07-3.62,2.07-.53,4.94-1.11,6.91-1.42.27.01,4.77-.78,8.01-.99h3.95c.69.12,1.39.19,2.09.22.53.2,1.09.34,1.65.44h.1c.47.32,1.07.47,1.55.77h.11c.74.6,1.34,1.34,1.76,2.19.26,1.56.07,3.16-.55,4.61-.87,1.89-1.98,3.65-3.29,5.27-.25.43-.55.84-.88,1.2-1.09,1.35-2.26,2.63-3.5,3.84,0,.04-4.9,4.83-4.94,4.83-.75.75-6.38,5.66-6.92,6.04-.35.34-8.64,6.94-8.99,7.13-.53.47-9.1,6.81-9.55,7.03-1.07.83-15.98,10.97-17.33,11.85-.51.3-2.3,1.53-3.3,2.19-2.01,1.23-9.1,5.74-9.43,5.93-.55.36-27.54,16.38-30.29,18.11-9.8,5.57-19.71,11.02-29.85,16.25-.34.03-11.07,5.69-11.41,5.82-3.76,1.91-12.25,6.15-12.73,6.36-.48.28-4.94,2.37-5.16,2.53-2.1,1.08-9.01,4.23-9.22,4.39-2.14,1.02-4.09,1.91-6.14,2.85-2.91,1.33-6.65,2.97-6.92,3.18-2.5,1.12-4.97,2.23-7.47,3.29-2.03.79-5.91,2.53-9.54,4.06-3.29,1.38-12.49,5-13.39,5.49-1.75.64-2.77,1.17-4.97,1.97-1.33.53-4.39,1.58-6,2.19-5.48,1.87-10.88,3.83-16.46,5.6-.45.13-1.4.44-1.43.44-.45.13-1.39.44-1.43.44-.45.14-4.72,1.35-6.36,1.87-.53.15-.61.15-1.21.33-1.85.39-3.57.89-5.37,1.32-.58.18-1.16.33-1.75.44-1.87.39-2.36.44-3.91.73-.46.14-.92.25-1.39.34-.5.11-1,.2-1.51.25-.04,0-.93.11-1.63.22-.04,0-1.9.22-1.98.22-1.91.14-3.97.12-6.03.11-.65-.13-1.31-.2-1.98-.22-.61-.23-1.37-.31-1.97-.55-.72-.25-1.39-.62-1.98-1.09-.22-.14-.41-.33-.55-.55-.47-.6-.78-1.32-.88-2.09v-1.09c.47-2.41,1.49-4.68,2.97-6.65.47-.64.64-.8,1.08-1.47.44-.67,1.42-1.78,2.1-2.53.36-.34,2.68-2.92,3.07-3.29.45-.35,3.22-3.17,4.93-4.72.73-.58,1.43-1.21,2.09-1.87.04,0,.92-.81,1.63-1.42.04,0,3-2.5,3.69-3.1.5-.47,2.39-1.83,3.01-2.38.5-.36.72-.64,1.15-.9Z"/>
          <path id="Path_4" data-name="Path 4" class="cls-4" d="m99.36,144.35c.74-.59,1.51-1.13,2.3-1.63-.34.29-2.23,1.91-2.27,1.91-.43.41-.8.7-1.46,1.27-1.2,1.01-1.89,1.63-2.85,2.42-.85.8-2.66,2.5-2.74,2.53-1.36,1.27-3.95,4.02-3.95,4.06-1.02,1.03-1.76,1.89-2.64,2.86-.47.56-2.12,2.77-2.85,3.95-1.15,1.8-2.93,5.12-1.42,7.57,0,.04.37.67.37.7.24.32.56.57.93.73h.11c.46.4,1.03.67,1.63.77.99.36,2.03.54,3.08.55,1.11.18,2.25.21,3.37.1.75-.03,1.49-.1,2.23-.21,5.56-.62,11.07-1.68,16.46-3.18.4-.07,2.53-.65,3.18-.88.53-.08,2.54-.7,3.07-.87.45-.14,8.19-2.6,10.86-3.52.49-.17,4.27-1.31,6.23-2.14,1.01-.35,4.74-1.78,5.29-2.03.48-.15,3.5-1.36,4.61-1.76.88-.37,9.17-3.75,11.3-4.61,2.62-1.08,11.58-4.88,12.18-5.15,1.62-.72,4.59-2.08,6.58-2.97,2.43-1.06,5.03-2.28,7.68-3.5,2.4-1.08,8.87-4.08,9.34-4.39,1.15-.55,4.29-2.04,6.36-3.07.36-.08,9.61-4.58,13.39-6.69,1.59-.86,4.45-2.3,6.03-3.18,14.01-7.11,27.49-14.71,40.94-22.38,3.27-1.92,6.6-3.79,9.76-5.81.51-.13,6.91-4.18,8.56-5.16.45-.28,11.19-7.14,12.07-7.68.51-.3,8.4-5.62,8.78-5.82.53-.42,13.63-9.49,14.05-9.99.04,0,8.02-6.1,8.45-6.37.7-.58,3.58-2.74,3.84-3.18h.11c.41-.36,2.21-1.93,2.74-2.31,1.73-1.56,8.21-7.43,9.84-9.2,1.35-1.41,2.6-2.91,3.73-4.5.81-1.2,1.46-2.16,1.69-2.55.62-1.11,1.14-2.29,1.53-3.5.22-1.09.19-2.22-.1-3.29-.46-1-1.29-1.78-2.31-2.2-1.04-.47-2.15-.77-3.29-.88-.16-.25-.77-.04-1.1-.11l-2.55-.04c-.44.07-2.36-.1-2.61.15-1.92.1-3.83.36-5.71.77-.45-.02-7.7,1.8-10.2,2.08.28,0,9.68-2.81,13.05-3.62,2.07-.53,4.94-1.11,6.92-1.43.27.02,4.77-.78,8.01-.99h3.95c.69.12,1.39.19,2.09.22.53.2,1.08.34,1.63.44h.11c.45.32,1.06.47,1.53.77h.11c.74.59,1.34,1.34,1.76,2.2.26,1.56.07,3.16-.55,4.61-.86,1.89-1.97,3.66-3.29,5.27-.25.43-.54.84-.88,1.21-1.09,1.35-2.26,2.63-3.5,3.84,0,.04-4.9,4.83-4.94,4.83-.75.75-6.38,5.66-6.91,6.04-.36.34-8.64,6.94-9,7.13-.53.47-9.1,6.81-9.55,7.02-1.07.83-15.99,10.97-17.34,11.85-.5.3-2.3,1.53-3.29,2.19-2.01,1.23-9.1,5.74-9.43,5.93-.55.36-27.54,16.38-30.29,18.11-9.8,5.56-19.71,11.02-29.85,16.24-.34.03-11.07,5.69-11.41,5.81-3.76,1.92-12.24,6.16-12.73,6.37-.49.29-4.95,2.37-5.16,2.52-2.11,1.09-9.01,4.24-9.22,4.39-2.14,1.02-4.08,1.91-6.14,2.86-2.91,1.33-6.65,2.98-6.91,3.18-2.49,1.13-4.96,2.24-7.47,3.3-2.03.79-5.92,2.52-9.55,4.06-3.29,1.38-12.49,5-13.39,5.49-1.75.63-2.77,1.17-4.97,1.97-1.33.53-4.39,1.58-6,2.2-5.48,1.87-10.88,3.83-16.46,5.6-.45.14-1.39.44-1.43.44-.45.14-1.4.44-1.43.44-.45.14-4.72,1.35-6.36,1.87-.53.16-.61.16-1.21.33-1.85.39-3.57.9-5.37,1.32-.58.18-1.17.33-1.76.44-1.87.4-2.36.45-3.9.73-.46.14-.93.26-1.4.34-.5.11-1,.19-1.51.25-.04,0-.93.11-1.65.22-.04,0-1.9.22-1.97.22-1.92.14-3.97.12-6.04.11-.65-.13-1.31-.21-1.97-.23-.62-.23-1.38-.31-1.98-.55-.72-.24-1.39-.61-1.97-1.09-.23-.13-.42-.32-.55-.55-.47-.6-.78-1.32-.88-2.08v-1.1c.47-2.41,1.49-4.68,2.97-6.65.47-.63.64-.8,1.08-1.48.47-.63,1.41-1.77,2.09-2.53.36-.33,2.69-2.91,3.07-3.29.45-.36,3.22-3.17,4.94-4.72.11,0,1.2-1.06,2.09-1.87.04,0,.92-.81,1.63-1.43.04,0,3-2.5,3.69-3.1.49-.47,2.39-1.84,3.01-2.39.58-.35.81-.62,1.24-.89Z"/>
        </g>
        <text class="cls-2" transform="translate(289.97 167.12)"><tspan x="0" y="0">Managed by</tspan><tspan x="-111.76" y="26.33">Regency Travel &amp; Tours</tspan></text>
      </g>
    </g>
  </g>
</svg>